<svg xmlns="http://www.w3.org/2000/svg" viewBox="0 0 353.7 86.9"><style type="text/css">  
	.st0{fill:#2BAEE4;}
	.st1{fill:#0E2234;}
</style><path class="st0" d="M7.7 67.6C7.4 67.3 0 62.1 0 54.7V0.1h5.7v54.6c0 4.4 5.2 8.1 5.2 8.1L7.7 67.6z"/><path class="st0" d="M34.3 67.6c-6.9 0-12.3-2.3-16.2-6.7 -3.8-4.3-5.7-10.1-5.7-17.1 0-6.8 2-12.5 6-16.9 4-4.5 9.4-6.7 16-6.7 6.9 0 12.3 2.2 16.2 6.5 3.8 4.2 5.7 10 5.7 17.2 0 7.1-2 12.9-5.8 17.2C46.5 65.4 41 67.6 34.3 67.6zM34.3 25.9c-4.9 0-8.8 1.6-11.7 4.8 -3 3.3-4.5 7.6-4.5 13.1 0 5.7 1.4 10 4.3 13.4 2.8 3.2 6.7 4.8 11.9 4.8 5.1 0 9-1.5 11.8-4.7 2.9-3.3 4.4-7.6 4.4-13.4 0-5.7-1.4-10.2-4.3-13.3C43.4 27.4 39.5 25.9 34.3 25.9z"/><path class="st0" d="M78.6 84.6c-4.5 0-11.7-0.3-12-0.3l0.3-5.7c0.1 0 7.4 0.3 11.8 0.3 4 0 9.4 0 12.9-3.5 2.1-2.1 3.1-5.4 3.1-10.1 0 0 0-0.1 0-0.2 -1 0.5-1.9 0.9-2.7 1.2 -3.1 1.1-6.1 1.3-10.2 1.3 -6.6 0-12-2.1-15.8-6.3 -3.8-4.1-5.7-9.8-5.7-17 0-7.2 2.2-13.1 6.5-17.5 4.3-4.4 9.9-6.6 16.6-6.6 2.2 0 10 0.4 14.5 0.6l2.7 0.1v8.1c0 0-0.1 33.6-0.1 36.1 0 6.3-1.6 11-4.7 14.2C90.4 84.6 83.3 84.6 78.6 84.6zM83.2 26c-5.1 0-9.2 1.6-12.5 4.9 -3.3 3.3-4.8 7.7-4.8 13.4 0 5.7 1.4 10.1 4.2 13.1 2.8 3 6.5 4.4 11.6 4.4 3.6 0 6-0.2 8.3-1 0.5-0.2 1.2-0.5 2-0.9 1.6-0.8 2.6-2.5 2.6-4.3 0-7.6 0-18.6 0.1-24.7 0-2.6-2-4.7-4.6-4.8C86.5 26.1 84.1 26 83.2 26z"/><path class="st0" d="M153.6 66.9h-5.7V41.7c0-8.1-1.5-11.4-2.7-12.6 -1.9-2-5-2.9-9.9-3l-0.3 0c-1.5 0-4.9 0.5-8.2 1 -2.3 0.4-4.1 2.4-4.1 4.7v35.2h-5.7V21.1c0 0 14.5-0.9 18-0.9 0.2 0 0.3 0 0.4 0 4.4 0.1 10 0.7 13.9 4.8 2.9 3.1 4.3 8.3 4.3 16.6V66.9z"/><path class="st1" d="M297.5 67.6c-0.2 0-0.3 0-0.4 0 -4.4-0.1-10-0.7-13.9-4.8 -2.9-3.1-4.3-8.4-4.3-16.9V21.1h5.7v24.8c0 8.4 1.5 12.4 2.7 13.7 1.9 2 5 2.9 9.9 3l0.3 0c1.5 0 4.9-0.5 8.2-1 2.3-0.4 4.1-2.4 4.1-4.7V21.1h5.7v45.7C315.6 66.9 301.1 67.6 297.5 67.6z"/><path class="st1" d="M197.7 67.6c-4.5 0-8.1-1.2-10.8-3.6 -2.7-2.4-4.2-6.2-4.2-10.7 0-5 1.9-9 5.7-11.9 3.6-2.7 8.5-4 14.8-4 2.2 0 5.2 0.2 8.4 1 -0.1-3.3-0.6-6.6-2.5-8.5 -3.6-3.6-8.8-4.1-12.3-4.1 -4.3 0-9 0.2-9.1 0.2l-0.2-5.7c0 0 4.8-0.2 9.3-0.2 2.6 0 10.7 0 16.4 5.7 4.3 4.3 4.3 11 4.3 14.6v26.3l-2.7 0.2C214.3 67 205.2 67.6 197.7 67.6zM203.1 43.3c-5 0-8.8 1-11.3 2.9 -2.3 1.8-3.4 4.1-3.4 7.3 0 2.8 0.8 5.8 2.3 7 1.6 1.4 4 2.1 7.1 2.1 3 0 6.4-0.1 9.3-0.2 2.6-0.1 4.6-2.2 4.6-4.8v-9.2c0-2.4-1.7-4.4-4.1-4.7C205.8 43.4 204.3 43.3 203.1 43.3z"/><path class="st1" d="M242.9 67.6c-6.1 0-11.4-2.2-15.1-6.2 -3.6-4-5.5-9.9-5.5-17 0-7 2.1-12.8 6.2-17.3 4.2-4.5 9.5-6.8 15.8-6.8 3.5 0 6.3 0.3 8.9 0.8 1.1 0.2 2.3 0.6 3.3 1V0.2h5.7v66.7C262.4 66.9 246.7 67.6 242.9 67.6zM244.4 26c-4.7 0-8.5 1.6-11.6 5 -3.2 3.4-4.7 7.8-4.7 13.4 0 5.7 1.4 10.2 4 13.1 2.5 2.8 6.4 5.1 10.8 5.1 2.1 0 5.7-0.1 9.1-0.3 2.6-0.1 4.6-2.2 4.6-4.8V52 31.6c0-2.2-1.4-4-3.5-4.6 -0.4-0.1-0.7-0.2-1-0.3C249.9 26.2 247.5 26 244.4 26z"/><rect x="105.5" y="21.1" class="st0" width="5.7" height="45.7"/><path class="st0" d="M108.3 0c-1.2 0-2.1 0.4-2.9 1.2 -0.8 0.8-1.2 1.7-1.2 2.9s0.4 2.1 1.2 2.9c0.8 0.8 1.7 1.2 2.9 1.2h4.1V4.1c0-1.2-0.4-2.1-1.2-2.9C110.3 0.4 109.4 0 108.3 0z"/><rect x="267.6" y="21.1" class="st1" width="5.7" height="45.7"/><path class="st1" d="M273.1 1.4c-0.8-0.8-1.6-1.1-2.7-1.1 -1.1 0-1.9 0.3-2.7 1.1 -0.8 0.8-1.1 1.6-1.1 2.7 0 1.1 0.3 1.9 1.1 2.7 0.8 0.8 1.6 1.1 2.7 1.1h3.9V4.1C274.2 3 273.9 2.1 273.1 1.4z"/><path class="st1" d="M177.8 20.3c-0.1 0-0.3 0-0.4 0 -3.6 0-18 0.9-18 0.9v45.7h5.7V31.7c0-2.4 1.7-4.4 4.1-4.7 3.3-0.5 6.8-1 8.2-1l0.3 0c2.1 0 3.4-0.1 5.2 0.1v-5.8C181.4 20 179.7 20.3 177.8 20.3z"/><path class="st1" d="M351.3 55.5c-0.3 8.1-6.2 12-16.7 12 -6.1 0-14-0.8-14-0.8v-6.2c0 0 3.6 1.2 13.7 1.2 4.8 0 10.6-1.1 11.2-6.3 1.5-13.3-25.5-2.6-25.5-21.7 0-6.5 4.3-12.7 16.3-12.7 4.8 0 13.7 0.4 13.7 0.4v6.3c0 0-3.8-1.3-12.9-1.2 -4.7 0-11 2-11 7C326.3 46.8 352.1 35.4 351.3 55.5z"/></svg>